<svg xmlns="http://www.w3.org/2000/svg" viewBox="0 0 128 128" role="img" aria-label="Dev">
  <defs>
    <linearGradient id="bg" x1="0" y1="0" x2="1" y2="1"><stop offset="0" stop-color="#a7f3d0"/><stop offset="1" stop-color="#059669"/></linearGradient>
    <clipPath id="c"><circle cx="64" cy="64" r="64"/></clipPath>
  </defs>
  <g clip-path="url(#c)">
  <rect width="128" height="128" fill="url(#bg)"/>
  <circle cx="100" cy="24" r="30" fill="#fff" opacity=".12"/>
  
  <path d="M18 128 C18 104 36 94 64 94 C92 94 110 104 110 128 Z" fill="#7c2d12"/><path d="M52 95 L64 106 L58 112 Z M76 95 L64 106 L70 112 Z" fill="#fed7aa"/><path d="M64 106 V128" stroke="#fed7aa" stroke-width="1.6" opacity=".6"/>
  
  <path d="M55 82 h18 v12 c0 5 -18 5 -18 0 z" fill="#7e4f31"/>
  <ellipse cx="41.5" cy="61" rx="4.5" ry="6" fill="#7e4f31"/><ellipse cx="86.5" cy="61" rx="4.5" ry="6" fill="#7e4f31"/>
  <ellipse cx="64" cy="60" rx="22" ry="25" fill="#9a6440"/>
  <ellipse cx="54" cy="68" rx="4" ry="2.4" fill="#f28b82" opacity=".35"/><ellipse cx="74" cy="68" rx="4" ry="2.4" fill="#f28b82" opacity=".35"/>
  <path d="M50 52 q5 -3 10 0 M68 52 q5 -3 10 0" stroke="#15100c" stroke-width="2.2" fill="none" stroke-linecap="round"/>
  <ellipse cx="55.5" cy="60" rx="2.6" ry="3" fill="#2b1d16"/><ellipse cx="72.5" cy="60" rx="2.6" ry="3" fill="#2b1d16"/>
  <circle cx="56.4" cy="59" r=".9" fill="#fff"/><circle cx="73.4" cy="59" r=".9" fill="#fff"/>
  <path d="M63 63 q1 4 -1.5 5" stroke="#7e4f31" stroke-width="1.8" fill="none" stroke-linecap="round"/>
  <path d="M42 60 C42 80 52 90 64 90 C76 90 86 80 86 60 C84 70 80 74 74 75 C70 71 58 71 54 75 C48 74 44 70 42 60 Z" fill="#15100c"/><path d="M57 75.5 Q64 79 71 75.5" stroke="#fff" stroke-opacity=".55" stroke-width="1.6" fill="none" stroke-linecap="round"/>
  <path d="M57 73 Q64 79 71 73" stroke="#9a3b3b" stroke-width="2.2" fill="none" stroke-linecap="round"/>
  <g fill="none" stroke="#1f2937" stroke-width="2.2"><circle cx="55.5" cy="60" r="7"/><circle cx="72.5" cy="60" r="7"/><path d="M62.5 60 h3 M48.5 59 l-5 -2 M79.5 59 l5 -2"/></g>
  <path d="M42 54 C42 38 52 32 64 32 C76 32 86 38 86 54 C82 44 74 40 64 40 C54 40 46 44 42 54 Z" fill="#15100c"/>
  </g>
</svg>
