<svg xmlns="http://www.w3.org/2000/svg" viewBox="0 0 1600 1000" font-family="Arial, Helvetica, sans-serif">
  <defs>
    <linearGradient id="bg" x1="0" y1="0" x2="1" y2="1"><stop offset="0" stop-color="#0a0f1f"/><stop offset="1" stop-color="#121a36"/></linearGradient>
    <linearGradient id="g" x1="0" y1="0" x2="1" y2="0"><stop offset="0" stop-color="#5a9fd4"/><stop offset=".4" stop-color="#4b8bbe"/><stop offset="1" stop-color="#ffd43b"/></linearGradient>
    <linearGradient id="blue" x1="0" y1="0" x2="1" y2="1"><stop offset="0" stop-color="#5a9fd4"/><stop offset="1" stop-color="#306998"/></linearGradient>
    <linearGradient id="yel" x1="0" y1="0" x2="1" y2="1"><stop offset="0" stop-color="#ffe873"/><stop offset="1" stop-color="#ffc331"/></linearGradient>
    <radialGradient id="glow" cx=".8" cy=".2" r=".6"><stop offset="0" stop-color="#4b8bbe" stop-opacity=".28"/><stop offset="1" stop-color="#4b8bbe" stop-opacity="0"/></radialGradient>
  </defs>
  <rect width="1600" height="1000" fill="url(#bg)"/>
  <rect width="1600" height="1000" fill="url(#glow)"/>
  <!-- activity bar -->
  <rect x="0" y="0" width="84" height="1000" fill="#10172e"/>
  <g transform="translate(20 18) scale(.7)">
    <path d="M31 6c-9 0-13 4-13 9v7h14v3H13c-5 0-9 4-9 12s4 12 9 12h5v-8c0-5 4-9 9-9h12c4 0 7-3 7-7V15c0-5-5-9-15-9z" fill="url(#blue)"/>
    <path d="M33 58c9 0 13-4 13-9v-7H32v-3h19c5 0 9-4 9-12s-4-12-9-12h-5v8c0 5-4 9-9 9H25c-4 0-7 3-7 7v10c0 5 5 9 15 9z" fill="url(#yel)"/>
  </g>
  <g fill="#8994b4">
    <rect x="28" y="110" width="28" height="28" rx="7" opacity=".5"/><rect x="28" y="170" width="28" height="28" rx="7" opacity=".5"/>
    <rect x="28" y="230" width="28" height="28" rx="7" fill="#ffd43b"/><rect x="28" y="290" width="28" height="28" rx="7" opacity=".5"/>
    <rect x="28" y="350" width="28" height="28" rx="7" opacity=".5"/><rect x="28" y="410" width="28" height="28" rx="7" opacity=".5"/>
  </g>
  <rect x="12" y="226" width="4" height="36" rx="2" fill="#ffd43b"/>
  <!-- title bar + tabs -->
  <rect x="84" y="0" width="1516" height="64" fill="#0a0f1f" opacity=".85"/>
  <circle cx="114" cy="32" r="7" fill="#ff5f57"/><circle cx="136" cy="32" r="7" fill="#febc2e"/><circle cx="158" cy="32" r="7" fill="#28c840"/>
  <text x="186" y="40" fill="#e7ecfb" font-size="22" font-weight="700">Python<tspan fill="#ffd43b">Academy</tspan></text>
  <text x="400" y="39" fill="#8994b4" font-size="16" font-family="Menlo, monospace">python-academy › <tspan fill="#e7ecfb">playground.py</tspan></text>
  <rect x="1100" y="16" width="250" height="32" rx="8" fill="#fff" opacity=".05"/><text x="1116" y="37" fill="#8994b4" font-size="15">⌕ Search or jump to…  ⌘K</text>
  <rect x="1366" y="16" width="200" height="32" rx="16" fill="#fff" opacity=".06"/><text x="1384" y="37" fill="#ffd43b" font-size="15" font-weight="700">🐍 Lv 5</text>
  <rect x="1446" y="28" width="90" height="8" rx="4" fill="#fff" opacity=".1"/><rect x="1446" y="28" width="58" height="8" rx="4" fill="url(#g)"/>
  <rect x="84" y="64" width="1516" height="44" fill="#10172e"/>
  <rect x="84" y="64" width="190" height="44" fill="#0a0f1f"/><rect x="84" y="64" width="190" height="3" fill="url(#g)"/>
  <text x="108" y="92" fill="#e7ecfb" font-size="15" font-family="Menlo, monospace">▣ playground.py</text>
  <text x="300" y="92" fill="#8994b4" font-size="15" font-family="Menlo, monospace">predict_output.py</text>
  <text x="490" y="92" fill="#8994b4" font-size="15" font-family="Menlo, monospace">07_functions.py</text>
  <!-- heading -->
  <text x="130" y="176" fill="#ffd43b" font-size="16" font-weight="700" letter-spacing="3" font-family="Menlo, monospace">REAL CPYTHON · IN YOUR BROWSER</text>
  <text x="130" y="232" fill="#e7ecfb" font-size="50" font-weight="900">Learn Python by <tspan fill="url(#g)">running it.</tspan></text>
  <!-- editor -->
  <rect x="130" y="270" width="900" height="470" rx="18" fill="#0b1122" stroke="#fff" stroke-opacity=".1"/>
  <rect x="130" y="270" width="900" height="48" rx="18" fill="#0e1530"/><rect x="130" y="300" width="900" height="18" fill="#0e1530"/>
  <circle cx="156" cy="294" r="6" fill="#ff5f57"/><circle cx="175" cy="294" r="6" fill="#febc2e"/><circle cx="194" cy="294" r="6" fill="#28c840"/>
  <text x="220" y="300" fill="#8b97b8" font-size="15" font-family="Menlo, monospace">main.py</text>
  <rect x="930" y="281" width="84" height="28" rx="7" fill="#ffd43b"/><text x="972" y="301" fill="#1a1400" font-size="15" font-weight="800" text-anchor="middle">▶ Run</text>
  <g font-family="Menlo, monospace" font-size="21">
    <g fill="#4a5576" text-anchor="end"><text x="176" y="366">1</text><text x="176" y="402">2</text><text x="176" y="438">3</text><text x="176" y="474">4</text><text x="176" y="510">5</text><text x="176" y="546">6</text><text x="176" y="582">7</text><text x="176" y="618">8</text></g>
    <text x="206" y="366"><tspan fill="#c792ea">from</tspan><tspan fill="#d6deeb"> collections </tspan><tspan fill="#c792ea">import</tspan><tspan fill="#d6deeb"> Counter</tspan></text>
    <text x="206" y="438"><tspan fill="#c792ea">def</tspan><tspan fill="#82aaff" font-weight="700"> top_words</tspan><tspan fill="#89ddff">(</tspan><tspan fill="#d6deeb">text, n</tspan><tspan fill="#89ddff">=</tspan><tspan fill="#f78c6c">3</tspan><tspan fill="#89ddff">):</tspan></text>
    <text x="250" y="474"><tspan fill="#637099" font-style="italic"># lowercase, split, count</tspan></text>
    <text x="250" y="510"><tspan fill="#c792ea">return</tspan><tspan fill="#ffcb6b"> Counter</tspan><tspan fill="#89ddff">(</tspan><tspan fill="#d6deeb">text.lower().split()</tspan><tspan fill="#89ddff">)</tspan><tspan fill="#d6deeb">.most_common(n)</tspan></text>
    <text x="206" y="582"><tspan fill="#ffcb6b">print</tspan><tspan fill="#89ddff">(</tspan><tspan fill="#d6deeb">top_words</tspan><tspan fill="#89ddff">(</tspan><tspan fill="#c3e88d">"to be or not to be"</tspan><tspan fill="#89ddff">))</tspan></text>
    <rect x="206" y="600" width="3" height="26" fill="#ffd43b"/>
  </g>
  <!-- terminal -->
  <rect x="130" y="760" width="900" height="200" rx="18" fill="#0b1122" stroke="#fff" stroke-opacity=".1"/>
  <text x="156" y="796" fill="#8b97b8" font-size="14" letter-spacing="2" font-family="Menlo, monospace">TERMINAL</text>
  <g font-family="Menlo, monospace" font-size="19">
    <text x="156" y="846"><tspan fill="#4ade80" font-weight="700">$</tspan><tspan fill="#d6deeb"> python main.py</tspan></text>
    <text x="156" y="884" fill="#e2e8f0">[('to', 2), ('be', 2), ('or', 1)]</text>
    <text x="156" y="922" fill="#4ade80" opacity=".75">[done in 12 ms]</text>
  </g>
  <!-- right: puzzle card -->
  <rect x="1070" y="270" width="470" height="410" rx="18" fill="#fff" opacity=".045" stroke="#fff" stroke-opacity=".1"/>
  <text x="1096" y="312" fill="#8994b4" font-size="15" letter-spacing="3" font-family="Menlo, monospace">🔮 PREDICT THE OUTPUT</text>
  <rect x="1096" y="332" width="418" height="104" rx="12" fill="#0b1122"/>
  <g font-family="Menlo, monospace" font-size="17">
    <text x="1114" y="368"><tspan fill="#d6deeb">fns </tspan><tspan fill="#89ddff">= [</tspan><tspan fill="#c792ea">lambda</tspan><tspan fill="#89ddff">:</tspan><tspan fill="#d6deeb"> i </tspan><tspan fill="#c792ea">for</tspan><tspan fill="#d6deeb"> i </tspan><tspan fill="#c792ea">in</tspan><tspan fill="#ffcb6b"> range</tspan><tspan fill="#89ddff">(</tspan><tspan fill="#f78c6c">3</tspan><tspan fill="#89ddff">)]</tspan></text>
    <text x="1114" y="404"><tspan fill="#ffcb6b">print</tspan><tspan fill="#89ddff">([</tspan><tspan fill="#d6deeb">f() </tspan><tspan fill="#c792ea">for</tspan><tspan fill="#d6deeb"> f </tspan><tspan fill="#c792ea">in</tspan><tspan fill="#d6deeb"> fns</tspan><tspan fill="#89ddff">])</tspan></text>
  </g>
  <g font-family="Menlo, monospace" font-size="17">
    <rect x="1096" y="456" width="204" height="52" rx="12" fill="#fff" opacity=".05" stroke="#fff" stroke-opacity=".12"/><text x="1116" y="488" fill="#e7ecfb">A  [0, 1, 2]</text>
    <rect x="1310" y="456" width="204" height="52" rx="12" fill="#34d399" fill-opacity=".16" stroke="#34d399"/><text x="1330" y="488" fill="#e7ecfb">B  [2, 2, 2]</text>
    <rect x="1096" y="518" width="204" height="52" rx="12" fill="#fff" opacity=".05" stroke="#fff" stroke-opacity=".12"/><text x="1116" y="550" fill="#e7ecfb">C  [0, 0, 0]</text>
    <rect x="1310" y="518" width="204" height="52" rx="12" fill="#fff" opacity=".05" stroke="#fff" stroke-opacity=".12"/><text x="1330" y="550" fill="#e7ecfb">D  [3, 3, 3]</text>
  </g>
  <text x="1096" y="612" fill="#34d399" font-size="18" font-weight="700">✓ Correct!  +15 XP</text>
  <text x="1096" y="644" fill="#8994b4" font-size="15">Late binding: lambdas look up i when called.</text>
  <!-- badges -->
  <rect x="1070" y="700" width="470" height="260" rx="18" fill="#fff" opacity=".045" stroke="#fff" stroke-opacity=".1"/>
  <text x="1096" y="742" fill="#e7ecfb" font-size="20" font-weight="700">🏅 Badges</text><text x="1514" y="742" fill="#8994b4" font-size="15" text-anchor="end">6 / 15</text>
  <g font-size="34" text-anchor="middle">
    <rect x="1096" y="764" width="126" height="84" rx="14" fill="#ffd43b" fill-opacity=".1" stroke="#ffd43b" stroke-opacity=".5"/><text x="1159" y="818">👋</text>
    <rect x="1242" y="764" width="126" height="84" rx="14" fill="#ffd43b" fill-opacity=".1" stroke="#ffd43b" stroke-opacity=".5"/><text x="1305" y="818">🔮</text>
    <rect x="1388" y="764" width="126" height="84" rx="14" fill="#ffd43b" fill-opacity=".1" stroke="#ffd43b" stroke-opacity=".5"/><text x="1451" y="818">▶️</text>
    <rect x="1096" y="860" width="126" height="84" rx="14" fill="#fff" fill-opacity=".04" stroke="#fff" stroke-opacity=".1"/><text x="1159" y="914" opacity=".35">🧘</text>
    <rect x="1242" y="860" width="126" height="84" rx="14" fill="#fff" fill-opacity=".04" stroke="#fff" stroke-opacity=".1"/><text x="1305" y="914" opacity=".35">🏆</text>
    <rect x="1388" y="860" width="126" height="84" rx="14" fill="#fff" fill-opacity=".04" stroke="#fff" stroke-opacity=".1"/><text x="1451" y="914" opacity=".35">🤖</text>
  </g>
  <!-- status bar -->
  <rect x="84" y="974" width="1516" height="26" fill="#3776ab"/>
  <text x="104" y="992" fill="#eaf3ff" font-size="13" font-family="Menlo, monospace">⎇ main    ● Python 3.12 ready    58/210 known    🔥 4 days</text>
</svg>
